HIERARCHY
ROOT Hips
{
	OFFSET 0.000000 0.000000 0.000000 
	CHANNELS 6 Xposition Yposition Zposition Zrotation Yrotation Xrotation
	JOINT LeftUpLeg
	{
		OFFSET 1.363060 -1.794630 0.839290 
		CHANNELS 3 Zrotation Yrotation Xrotation
		JOINT LeftLeg
		{
			OFFSET 2.448110 -6.726130 0.000000 
			CHANNELS 3 Zrotation Yrotation Xrotation
			JOINT LeftFoot
			{
				OFFSET 2.562200 -7.039590 0.000000 
				CHANNELS 3 Zrotation Yrotation Xrotation
				JOINT LeftToeBase
				{
					OFFSET 0.157640 -0.433110 2.322550 
					CHANNELS 3 Zrotation Yrotation Xrotation
					End Site
					{
						OFFSET 0.000000 0.000000 0.000000 
					}
				}
			}
		}
	}
	JOINT RightUpLeg
	{
		OFFSET -1.305520 -1.794630 0.839290 
		CHANNELS 3 Zrotation Yrotation Xrotation
		JOINT RightLeg
		{
			OFFSET -2.542530 -6.985550 0.000000 
			CHANNELS 3 Zrotation Yrotation Xrotation
			JOINT RightFoot
			{
				OFFSET -2.568260 -7.056230 0.000000 
				CHANNELS 3 Zrotation Yrotation Xrotation
				JOINT RightToeBase
				{
					OFFSET -0.164730 -0.452590 2.363150 
					CHANNELS 3 Zrotation Yrotation Xrotation
					End Site
					{
						OFFSET 0.000000 0.000000 0.000000 
					}
				}
			}
		}
	}
	JOINT Spine
	{
		OFFSET 0.028270 2.035590 -0.193380 
		CHANNELS 3 Zrotation Yrotation Xrotation
		JOINT Spine1
		{
			OFFSET 0.056720 2.048850 -0.042750 
			CHANNELS 3 Zrotation Yrotation Xrotation
			JOINT Neck1
			{
				OFFSET -0.054170 1.746240 0.172020 
				CHANNELS 3 Zrotation Yrotation Xrotation
				JOINT Head
				{
					OFFSET 0.104070 1.761360 -0.123970 
					CHANNELS 3 Zrotation Yrotation Xrotation
					End Site
					{
						OFFSET 0.000000 0.000000 0.000000 
					}
				}
			}
			JOINT LeftArm
			{
				OFFSET 3.362410 1.200890 -0.311210 
				CHANNELS 3 Zrotation Yrotation Xrotation
				JOINT LeftForeArm
				{
					OFFSET 4.983000 -0.000000 -0.000000 
					CHANNELS 3 Zrotation Yrotation Xrotation
					JOINT LeftHand
					{
						OFFSET 3.483560 -0.000000 -0.000000 
						CHANNELS 3 Zrotation Yrotation Xrotation
						JOINT LeftHandIndex1
						{
							OFFSET 0.715260 -0.000000 -0.000000 
							CHANNELS 3 Zrotation Yrotation Xrotation
							End Site
							{
								OFFSET 0.000000 0.000000 0.000000 
							}
						}
					}
				}
			}
			JOINT RightArm
			{
				OFFSET -3.136600 1.374050 -0.404650 
				CHANNELS 3 Zrotation Yrotation Xrotation
				JOINT RightForeArm
				{
					OFFSET -5.241900 -0.000000 -0.000000 
					CHANNELS 3 Zrotation Yrotation Xrotation
					JOINT RightHand
					{
						OFFSET -3.444170 -0.000000 -0.000000 
						CHANNELS 3 Zrotation Yrotation Xrotation
						JOINT RightHandIndex1
						{
							OFFSET -0.622530 -0.000000 -0.000000 
							CHANNELS 3 Zrotation Yrotation Xrotation
							End Site
							{
								OFFSET 0.000000 0.000000 0.000000 
							}
						}
					}
				}
			}
		}
	}
}
MOTION
Frames: 10
Frame Time: 0.041667
1.599425 17.970831 -8.553709 -1.508790 -5.335672 9.643688 -14.983650 -1.249996 -11.812890 -0.037974 6.347641 19.404161 0.204606 0.355724 -8.127889 0.137600 -2.390500 -6.586200 14.439072 2.042363 -15.530482 -1.769251 -8.425800 22.938608 0.364593 -6.405091 -10.107426 -0.001900 -0.283100 0.777800 5.617646 -1.519611 0.917785 6.405870 -0.732633 1.741255 4.061839 -14.021634 15.646906 -0.882400 -6.534600 9.551400 -94.408971 -2.491062 0.952543 11.328952 -19.854852 -1.050179 1.249754 1.257047 3.748419 -7.125000 0.000000 0.000000 85.398413 0.239596 24.795325 -14.047596 24.160455 -2.372114 -0.194255 0.383633 -9.186308 7.125000 0.000000 0.000000 
1.602195 17.971127 -8.556973 -1.565163 -5.365728 9.664760 -14.942812 -1.251052 -11.848836 -0.035999 6.357127 19.426190 0.193035 0.434204 -8.101900 0.153500 -2.524600 -6.958000 14.477719 2.261347 -15.442718 -1.762192 -8.407465 22.885881 0.386399 -6.581051 -10.127178 -0.001600 -0.256200 0.703900 5.717738 -1.534500 0.894360 6.400571 -0.739472 1.705595 4.068185 -13.955996 15.710100 -0.863400 -6.506900 9.576300 -94.479286 -2.495843 0.771438 11.309141 -19.829227 -1.046519 1.249022 1.253396 3.860187 -7.125000 0.000000 0.000000 85.345375 0.250015 24.777815 -14.057215 24.177771 -2.375256 -0.191256 0.384654 -8.935659 7.125000 0.000000 0.000000 
1.606547 17.972413 -8.558457 -1.611641 -5.461271 9.681904 -14.920567 -1.170214 -11.903839 -0.032544 6.365294 19.447333 0.190661 0.459798 -8.115786 0.168500 -2.644500 -7.290500 14.504705 2.348635 -15.428805 -1.760793 -8.396894 22.860623 0.394061 -6.608234 -10.014933 -0.000200 0.080300 -0.220600 5.642037 -1.474297 0.930332 6.345789 -0.708549 1.703313 4.087202 -13.952424 15.722974 -0.867100 -6.497700 9.576200 -94.432309 -2.554929 0.794078 11.288090 -19.792851 -1.036047 1.251003 1.258525 3.946651 -7.125000 0.000000 0.000000 85.436669 0.312865 24.604762 -13.975441 24.054430 -2.341704 -0.189962 0.392447 -8.955232 7.125000 0.000000 0.000000 
1.611393 17.971919 -8.559347 -1.598269 -5.545510 9.628341 -14.953397 -1.105693 -11.895722 -0.026565 6.378549 19.485534 0.198278 0.431127 -8.180245 0.180600 -2.737500 -7.548700 14.480616 2.284899 -15.387767 -1.755925 -8.381591 22.815933 0.396809 -6.585771 -9.856218 -0.006700 0.527400 -1.449300 5.501474 -1.438138 1.025015 6.287147 -0.698003 1.648792 4.778280 -14.052580 16.407490 -0.661300 -6.452500 9.897000 -94.355494 -2.487997 1.014052 11.313982 -19.838160 -1.047536 1.249425 1.259828 3.830873 -7.125000 0.000000 0.000000 85.523418 0.357861 24.496601 -13.913925 23.960902 -2.316455 -0.193801 0.399083 -9.064698 7.125000 0.000000 0.000000 
1.614954 17.972809 -8.562413 -1.594890 -5.531981 9.605363 -14.958470 -1.138741 -11.898215 -0.020652 6.393961 19.530224 0.201541 0.418090 -8.207391 0.191500 -2.818500 -7.773700 14.472653 2.247682 -15.361744 -1.747951 -8.363756 22.758446 0.397772 -6.579167 -9.802547 -0.006800 0.533200 -1.465100 5.454355 -1.441719 1.058572 6.271975 -0.697088 1.596512 4.774681 -14.003562 16.485866 -0.660500 -6.426500 9.929600 -94.359096 -2.431997 1.058008 11.340902 -19.890064 -1.060794 1.246736 1.256211 3.819517 -7.125000 0.000000 0.000000 85.531015 0.356783 24.487207 -13.915033 23.961239 -2.316007 -0.199744 0.399479 -9.045740 7.125000 0.000000 0.000000 
1.617625 17.975084 -8.565875 -1.707417 -5.475065 9.644548 -14.836671 -1.136968 -11.969140 -0.013771 6.409691 19.572320 0.209147 0.367585 -8.212157 0.171700 -2.669500 -7.359800 14.593614 2.251994 -15.371251 -1.740473 -8.345620 22.700696 0.401498 -6.608824 -9.799621 -0.004600 0.438000 -1.203600 5.517830 -1.431630 0.955965 6.239222 -0.680861 1.539597 4.027714 -13.880961 15.935115 -0.894300 -6.456300 9.645500 -94.373856 -2.364554 1.170503 11.374147 -19.944480 -1.068115 1.247175 1.260021 3.688984 -7.125000 0.000000 0.000000 85.520915 0.262519 24.527809 -13.944493 24.000224 -2.326647 -0.206274 0.396321 -9.055258 7.125000 0.000000 0.000000 
1.620691 17.975479 -8.566864 -1.785538 -5.443000 9.647254 -14.761761 -1.128801 -11.991826 -0.008831 6.421465 19.604335 0.213230 0.352111 -8.241693 0.157600 -2.557800 -7.050000 14.677184 2.216098 -15.355747 -1.733784 -8.328841 22.648532 0.403245 -6.618028 -9.784061 -0.003800 0.397600 -1.092400 5.571487 -1.440261 0.944272 6.216004 -0.682925 1.491152 3.893050 -13.830220 16.050978 -0.941400 -6.437100 9.679700 -94.362128 -2.248876 1.463543 11.430420 -20.033917 -1.083394 1.246555 1.266262 3.365203 -7.125000 0.000000 0.000000 85.503817 0.250905 24.548273 -13.946343 24.004341 -2.328806 -0.208577 0.394202 -9.100406 7.125000 0.000000 0.000000 
1.624747 17.975479 -8.565183 -1.742023 -5.446022 9.635254 -14.826177 -1.147949 -11.975966 -0.006806 6.428309 19.625275 0.210518 0.377559 -8.257692 0.157800 -2.559200 -7.053800 14.624166 2.129354 -15.350183 -1.727969 -8.318421 22.610794 0.397718 -6.562691 -9.735786 -0.005200 0.466600 -1.282200 5.534629 -1.451217 0.935720 6.243432 -0.688073 1.474662 3.862433 -13.800398 16.096339 -0.946400 -6.425000 9.688200 -94.354747 -2.144570 1.601646 11.470558 -20.096426 -1.096680 1.245699 1.266424 3.211519 -7.125000 0.000000 0.000000 85.490743 0.249663 24.571742 -13.938826 23.993612 -2.326691 -0.208012 0.393880 -9.142890 7.125000 0.000000 0.000000 
1.628110 17.976666 -8.563897 -1.729089 -5.466028 9.677213 -14.844195 -1.127722 -12.022156 -0.007844 6.428015 19.616528 0.214849 0.323562 -8.204860 0.139900 -2.410300 -6.641100 14.602840 2.121532 -15.385529 -1.728488 -8.315976 22.608882 0.390010 -6.500402 -9.736272 -0.003400 0.374300 -1.028400 5.471194 -1.459635 0.827529 6.226447 -0.697417 1.455764 4.049582 -13.806154 16.301727 -0.880700 -6.404400 9.758600 -94.323839 -2.066436 1.710040 11.487848 -20.118475 -1.101790 1.244570 1.268374 3.151115 -7.125000 0.000000 0.000000 85.512339 0.147303 24.642420 -13.966255 24.029337 -2.335767 -0.208775 0.393596 -9.236563 7.125000 0.000000 0.000000 
1.629692 17.977260 -8.565776 -1.723503 -5.461064 9.731805 -14.842839 -1.130993 -12.087342 -0.011659 6.420556 19.588848 0.219557 0.261981 -8.143765 0.126200 -2.289600 -6.306700 14.588529 2.135192 -15.465512 -1.732302 -8.316755 22.626800 0.386919 -6.481092 -9.769313 -0.001500 0.248100 -0.681800 5.476485 -1.487468 0.907704 6.240904 -0.716954 1.515822 4.445634 -13.806801 16.604495 -0.750800 -6.357500 9.914300 -94.356443 -2.167377 1.746837 11.474582 -20.099964 -1.100563 1.243893 1.264980 3.214943 -7.125000 0.000000 0.000000 85.506187 0.177684 24.725373 -14.001157 24.082170 -2.347788 -0.209892 0.393824 -9.387984 7.125000 0.000000 0.000000 
